# xmcd
#
# Track frame offsets: 
#        150
#        18142
#        39435
#        58767
#        74937
#        98182
#        119385
#        137575
#        160410
#        180767
#        204135
#        216155
#        233737
#        246570
#
# Disc length: 3350 seconds
#
# Revision: 12
# Processed by: cddbd v1.5.2PL0 Copyright (c) Steve Scherf et al.
# Submitted via: ExactAudioCopy v1.3
#
DISCID=c30d140e
DTITLE=Various Artist - ONE PIECE SUPER BEST Disc2
DYEAR=2007
DGENRE=Anime
TTITLE0=Janne Da Arc - Shining ray
TTITLE1=Ruppina - Free Will
TTITLE2=Ruppina - FAITH
TTITLE3=ZZ - A to Z ?ONE PIECE Edition?
TTITLE4=shela - ????
TTITLE5=??????? - DREAMSHIP
TTITLE6=?????? - ????
TTITLE7=????????? - ????????
TTITLE8=TRIPLANE - Dear friends
TTITLE9=???? - ???????
TTITLE10=??????? - ADVENTURE WORLD
TTITLE11=7???????? - Fammily ?7??????????
TTITLE12=???????(????) - ??????????
TTITLE13=???????????????? - ?????(????)???
EXTD=YEAR: 2007
EXTT0=
EXTT1=
EXTT2=
EXTT3=
EXTT4=
EXTT5=
EXTT6=
EXTT7=
EXTT8=
EXTT9=
EXTT10=
EXTT11=
EXTT12=
EXTT13=
PLAYORDER=
